<svg width="136" height="118" viewBox="0 0 136 118" fill="none" xmlns="http://www.w3.org/2000/svg">
<path fill-rule="evenodd" clip-rule="evenodd" d="M129.234 26.3014C136.358 31.2921 138.136 41.1852 133.203 48.3946L110.587 81.4373C105.341 89.1029 96.7214 93.6634 87.5081 93.6634H64.0452C80.8138 69.1622 107.4 30.3158 107.4 30.3158C112.333 23.1057 122.108 21.3092 129.234 26.3014ZM9.06938 25.4744C16.219 21.4214 25.3118 24.0583 29.9779 30.8761L50.3032 60.5738C54.2465 66.3366 54.2509 73.9694 50.3136 79.7366L42.2859 91.4968C40.1136 94.6776 35.4682 94.6799 33.2936 91.5013L3.79051 48.3946C-1.42997 40.7602 0.867251 30.1219 9.06938 25.4744ZM72.2665 47.5825C70.0949 50.7632 65.4502 50.7662 63.2742 47.5877L52.715 32.1577C50.2042 28.4881 52.8 23.4765 57.2097 23.4765H78.303C82.7112 23.4765 85.3063 28.4829 82.8006 32.1525L72.2665 47.5825Z" fill="#E40046"/>
</svg>
